# xmcd
#
# Track frame offsets: 
#        150
#        17101
#        32173
#        49430
#        70544
#        90380
#        109035
#        126305
#        144306
#        177556
#        195008
#        212475
#        229412
#
# Disc length: 3252 seconds
#
# Revision: 0
# Processed by: cddbd v1.5.2PL0 Copyright (c) Steve Scherf et al.
# Submitted via: ExactAudioCopy v1.2
#
DISCID=af0cb20d
DTITLE=Keith Johnson - Come to Mississippi
DYEAR=2018
DGENRE=Blues
TTITLE0=Blues Chose Me
TTITLE1=Fire
TTITLE2=Best I've Ever Had
TTITLE3=Forgive Me Baby
TTITLE4=Juke Joint Blues
TTITLE5=Come to Mississippi
TTITLE6=Taxi
TTITLE7=Let's Dance
TTITLE8=Gambling Man
TTITLE9=Dirty Dog
TTITLE10=Same Thing
TTITLE11=Another Wish
TTITLE12=3 O' Clock
EXTD=
EXTT0=
EXTT1=
EXTT2=
EXTT3=
EXTT4=
EXTT5=
EXTT6=
EXTT7=
EXTT8=
EXTT9=
EXTT10=
EXTT11=
EXTT12=
PLAYORDER=
